<svg width="48" height="48" viewBox="0 0 48 48" fill="none" xmlns="http://www.w3.org/2000/svg">
<path d="M39 7.5C38.9988 6.30691 38.5243 5.16303 37.6806 4.31939C36.837 3.47575 35.6931 3.00124 34.5 3H13.5C12.3069 3.00124 11.163 3.47575 10.3194 4.31939C9.47575 5.16303 9.00124 6.30691 9 7.5V40.5C9.00124 41.6931 9.47575 42.837 10.3194 43.6806C11.163 44.5243 12.3069 44.9988 13.5 45H34.5C35.6931 44.9988 36.837 44.5243 37.6806 43.6806C38.5243 42.837 38.9988 41.6931 39 40.5V7.5ZM15.75 40.5C15.305 40.5 14.87 40.368 14.5 40.1208C14.13 39.8736 13.8416 39.5222 13.6713 39.111C13.501 38.6999 13.4564 38.2475 13.5432 37.811C13.63 37.3746 13.8443 36.9737 14.159 36.659C14.4737 36.3443 14.8746 36.1301 15.311 36.0432C15.7475 35.9564 16.1999 36.001 16.611 36.1713C17.0222 36.3416 17.3736 36.63 17.6208 37C17.868 37.37 18 37.805 18 38.25C18 38.8467 17.7629 39.419 17.341 39.841C16.919 40.2629 16.3467 40.5 15.75 40.5ZM15.75 33C15.305 33 14.87 32.868 14.5 32.6208C14.13 32.3736 13.8416 32.0222 13.6713 31.611C13.501 31.1999 13.4564 30.7475 13.5432 30.311C13.63 29.8746 13.8443 29.4737 14.159 29.159C14.4737 28.8443 14.8746 28.63 15.311 28.5432C15.7475 28.4564 16.1999 28.501 16.611 28.6713C17.0222 28.8416 17.3736 29.13 17.6208 29.5C17.868 29.87 18 30.305 18 30.75C18 31.3467 17.7629 31.919 17.341 32.341C16.919 32.7629 16.3467 33 15.75 33ZM15.75 25.5C15.305 25.5 14.87 25.368 14.5 25.1208C14.13 24.8736 13.8416 24.5222 13.6713 24.111C13.501 23.6999 13.4564 23.2475 13.5432 22.811C13.63 22.3746 13.8443 21.9737 14.159 21.659C14.4737 21.3443 14.8746 21.13 15.311 21.0432C15.7475 20.9564 16.1999 21.001 16.611 21.1713C17.0222 21.3416 17.3736 21.63 17.6208 22C17.868 22.37 18 22.805 18 23.25C18 23.8467 17.7629 24.419 17.341 24.841C16.919 25.2629 16.3467 25.5 15.75 25.5ZM24 40.5C23.555 40.5 23.12 40.368 22.75 40.1208C22.38 39.8736 22.0916 39.5222 21.9213 39.111C21.751 38.6999 21.7064 38.2475 21.7932 37.811C21.88 37.3746 22.0943 36.9737 22.409 36.659C22.7237 36.3443 23.1246 36.1301 23.561 36.0432C23.9975 35.9564 24.4499 36.001 24.861 36.1713C25.2722 36.3416 25.6236 36.63 25.8708 37C26.118 37.37 26.25 37.805 26.25 38.25C26.25 38.8467 26.0129 39.419 25.591 39.841C25.169 40.2629 24.5967 40.5 24 40.5ZM24 33C23.555 33 23.12 32.868 22.75 32.6208C22.38 32.3736 22.0916 32.0222 21.9213 31.611C21.751 31.1999 21.7064 30.7475 21.7932 30.311C21.88 29.8746 22.0943 29.4737 22.409 29.159C22.7237 28.8443 23.1246 28.63 23.561 28.5432C23.9975 28.4564 24.4499 28.501 24.861 28.6713C25.2722 28.8416 25.6236 29.13 25.8708 29.5C26.118 29.87 26.25 30.305 26.25 30.75C26.25 31.3467 26.0129 31.919 25.591 32.341C25.169 32.7629 24.5967 33 24 33ZM24 25.5C23.555 25.5 23.12 25.368 22.75 25.1208C22.38 24.8736 22.0916 24.5222 21.9213 24.111C21.751 23.6999 21.7064 23.2475 21.7932 22.811C21.88 22.3746 22.0943 21.9737 22.409 21.659C22.7237 21.3443 23.1246 21.13 23.561 21.0432C23.9975 20.9564 24.4499 21.001 24.861 21.1713C25.2722 21.3416 25.6236 21.63 25.8708 22C26.118 22.37 26.25 22.805 26.25 23.25C26.25 23.8467 26.0129 24.419 25.591 24.841C25.169 25.2629 24.5967 25.5 24 25.5ZM34.5 38.25C34.5 38.8467 34.2629 39.419 33.841 39.841C33.419 40.2629 32.8467 40.5 32.25 40.5C31.6533 40.5 31.081 40.2629 30.659 39.841C30.2371 39.419 30 38.8467 30 38.25V30.75C30 30.1533 30.2371 29.581 30.659 29.159C31.081 28.7371 31.6533 28.5 32.25 28.5C32.8467 28.5 33.419 28.7371 33.841 29.159C34.2629 29.581 34.5 30.1533 34.5 30.75V38.25ZM32.25 25.5C31.805 25.5 31.37 25.368 31 25.1208C30.63 24.8736 30.3416 24.5222 30.1713 24.111C30.001 23.6999 29.9564 23.2475 30.0432 22.811C30.13 22.3746 30.3443 21.9737 30.659 21.659C30.9737 21.3443 31.3746 21.13 31.811 21.0432C32.2475 20.9564 32.6999 21.001 33.111 21.1713C33.5222 21.3416 33.8736 21.63 34.1208 22C34.368 22.37 34.5 22.805 34.5 23.25C34.5 23.8467 34.2629 24.419 33.841 24.841C33.419 25.2629 32.8467 25.5 32.25 25.5ZM34.0603 16.0603C33.7792 16.3417 33.3978 16.4998 33 16.5H15C14.6022 16.5 14.2206 16.342 13.9393 16.0607C13.658 15.7794 13.5 15.3978 13.5 15V9C13.5 8.60218 13.658 8.22064 13.9393 7.93934C14.2206 7.65804 14.6022 7.5 15 7.5H33C33.3978 7.5 33.7794 7.65804 34.0607 7.93934C34.342 8.22064 34.5 8.60218 34.5 9V15C34.4998 15.3978 34.3417 15.7792 34.0603 16.0603Z" fill="#132442"/>
</svg>
