<svg width="30" height="30" viewBox="0 0 30 30" fill="none" xmlns="http://www.w3.org/2000/svg">
<path fill-rule="evenodd" clip-rule="evenodd" d="M13.1251 2.5C11.4308 2.50014 9.76115 2.90546 8.25539 3.68212C6.74963 4.45878 5.45144 5.58427 4.46912 6.96469C3.4868 8.34511 2.84884 9.94043 2.60846 11.6176C2.36808 13.2947 2.53226 15.005 3.0873 16.6057C3.64233 18.2065 4.57213 19.6513 5.79912 20.8197C7.02611 21.988 8.5147 22.846 10.1407 23.322C11.7667 23.798 13.483 23.8783 15.1463 23.5561C16.8097 23.234 18.3719 22.5187 19.7026 21.47L24.2676 26.035C24.5033 26.2627 24.8191 26.3887 25.1468 26.3858C25.4746 26.383 25.7881 26.2515 26.0198 26.0198C26.2516 25.788 26.3831 25.4745 26.3859 25.1468C26.3888 24.819 26.2628 24.5033 26.0351 24.2675L21.4701 19.7025C22.7051 18.1358 23.474 16.253 23.6889 14.2697C23.9039 12.2863 23.5561 10.2825 22.6854 8.48762C21.8146 6.69271 20.4562 5.1792 18.7654 4.12029C17.0747 3.06138 15.12 2.49987 13.1251 2.5ZM5.00007 13.125C5.00007 10.9701 5.8561 8.90349 7.37983 7.37976C8.90356 5.85602 10.9702 5 13.1251 5C15.28 5 17.3466 5.85602 18.8703 7.37976C20.394 8.90349 21.2501 10.9701 21.2501 13.125C21.2501 15.2799 20.394 17.3465 18.8703 18.8702C17.3466 20.394 15.28 21.25 13.1251 21.25C10.9702 21.25 8.90356 20.394 7.37983 18.8702C5.8561 17.3465 5.00007 15.2799 5.00007 13.125Z" fill="#868282"/>
</svg>
